<?xml version="1.0" encoding="UTF-8" standalone="no"?>
<svg
   viewBox="0 0 48 48"
   width="48px"
   height="48px"
   version="1.1"
   id="svg17"
   sodipodi:docname="icons8-desktop-container-alt(2).svg"
   inkscape:version="1.4.2 (ebf0e940d0, 2025-05-08)"
   xmlns:inkscape="http://www.inkscape.org/namespaces/inkscape"
   xmlns:sodipodi="http://sodipodi.sourceforge.net/DTD/sodipodi-0.dtd"
   xmlns="http://www.w3.org/2000/svg"
   xmlns:svg="http://www.w3.org/2000/svg">
  <defs
     id="defs17">
    <linearGradient
       id="z~0a6SjB_MRO4U5XcH~qfa"
       x1="24"
       x2="24"
       y1="4.4889998"
       y2="45.143002"
       gradientUnits="userSpaceOnUse"
       gradientTransform="matrix(0.50425665,0,0,0.52649101,23.048596,23.922275)">
      <stop
         offset="0"
         stop-color="#21ad64"
         id="stop1-3" />
      <stop
         offset="1"
         stop-color="#088242"
         id="stop2-6" />
    </linearGradient>
    <linearGradient
       x1="24"
       y1="4.4889998"
       x2="24"
       y2="45.143002"
       gradientUnits="userSpaceOnUse"
       id="color-1">
      <stop
         offset="0"
         stop-color="#f44f5a"
         id="stop1-7" />
      <stop
         offset="1"
         stop-color="#e52030"
         id="stop2-5" />
    </linearGradient>
  </defs>
  <sodipodi:namedview
     id="namedview17"
     pagecolor="#ffffff"
     bordercolor="#000000"
     borderopacity="0.25"
     inkscape:showpageshadow="2"
     inkscape:pageopacity="0.0"
     inkscape:pagecheckerboard="0"
     inkscape:deskcolor="#d1d1d1"
     inkscape:zoom="8"
     inkscape:cx="-14"
     inkscape:cy="22"
     inkscape:window-width="2560"
     inkscape:window-height="1360"
     inkscape:window-x="0"
     inkscape:window-y="0"
     inkscape:window-maximized="1"
     inkscape:current-layer="svg17"
     showguides="true">
    <sodipodi:guide
       position="8.6248555,32.468683"
       orientation="1,0"
       id="guide17"
       inkscape:locked="false" />
    <sodipodi:guide
       position="18.623701,39.409067"
       orientation="0,-1"
       id="guide18"
       inkscape:locked="false" />
    <sodipodi:guide
       position="14.939875,32.189707"
       orientation="0,-1"
       id="guide19"
       inkscape:locked="false" />
    <sodipodi:guide
       position="-48.5,14.5625"
       orientation="1,0"
       id="guide20"
       inkscape:locked="false" />
    <sodipodi:guide
       position="10.092844,11.552042"
       orientation="0,-1"
       id="guide21"
       inkscape:locked="false" />
  </sodipodi:namedview>
  <radialGradient
     id="JbJPDQpzlQgFl0pQhERgYa"
     cx="232.47"
     cy="544.051"
     r="86.245"
     gradientTransform="matrix(0.7455679,0,0,-0.93789676,-130.40909,581.4208)"
     gradientUnits="userSpaceOnUse">
    <stop
       offset=".323"
       stop-color="#23d9d6"
       id="stop1" />
    <stop
       offset=".427"
       stop-color="#23d4d7"
       id="stop2" />
    <stop
       offset=".542"
       stop-color="#21c7dc"
       id="stop3" />
    <stop
       offset=".664"
       stop-color="#1fb0e2"
       id="stop4" />
    <stop
       offset=".789"
       stop-color="#1c91ec"
       id="stop5" />
    <stop
       offset=".917"
       stop-color="#1969f8"
       id="stop6" />
    <stop
       offset=".944"
       stop-color="#1860fb"
       id="stop7" />
  </radialGradient>
  <path
     fill="url(#JbJPDQpzlQgFl0pQhERgYa)"
     d="M 7.7397454,6 H 35.575672 c 0.96121,0 1.739746,0.7785361 1.739746,1.7397454 V 35.575672 c 0,0.96121 -0.778536,1.739746 -1.739746,1.739746 H 7.7397454 C 6.7785361,37.315418 6,36.536882 6,35.575672 V 7.7397454 C 6,6.7785361 6.7785361,6 7.7397454,6 Z"
     id="path7"
     style="fill:url(#JbJPDQpzlQgFl0pQhERgYa);stroke-width:0.869873" />
  <path
     fill="#184f85"
     d="M 37.315418,35.575672 V 32.096181 H 6 v 3.479491 c 0,0.96121 0.7785361,1.739746 1.7397454,1.739746 H 35.575672 c 0.96121,0 1.739746,-0.778536 1.739746,-1.739746 z"
     id="path8"
     style="stroke-width:0.869873" />
  <path
     d="m 8.1746818,36.445545 c -0.7193848,0 -1.3048091,-0.585424 -1.3048091,-1.304809 v -0.869873 c 0,-0.719385 0.5854243,-1.304809 1.3048091,-1.304809 h 0.8698727 c 0.7193847,0 1.3048095,0.585424 1.3048095,1.304809 v 0.869873 c 0,0.719385 -0.5854248,1.304809 -1.3048095,1.304809 z"
     opacity="0.05"
     id="path9"
     style="display:inline;stroke-width:0.869873" />
  <path
     d="m 8.1746818,36.010609 c -0.4792999,0 -0.8698727,-0.390573 -0.8698727,-0.869873 v -0.869873 c 0,-0.4793 0.3905728,-0.869873 0.8698727,-0.869873 h 0.8698727 c 0.4792999,0 0.8698727,0.390573 0.8698727,0.869873 v 0.869873 c 0,0.4793 -0.3905728,0.869873 -0.8698727,0.869873 z"
     opacity="0.07"
     id="path10"
     style="stroke-width:0.869873" />
  <path
     fill="#ffffff"
     d="M 9.0445545,35.575672 H 8.1746818 c -0.2400849,0 -0.4349364,-0.194851 -0.4349364,-0.434936 v -0.869873 c 0,-0.240085 0.1948515,-0.434936 0.4349364,-0.434936 h 0.8698727 c 0.2400849,0 0.4349363,0.194851 0.4349363,0.434936 v 0.869873 c 0,0.240085 -0.1948514,0.434936 -0.4349363,0.434936 z"
     id="path11"
     style="stroke-width:0.869873" />
  <path
     d="m 12.442916,36.457287 c -0.719385,0 -1.304809,-0.585424 -1.304809,-1.304809 v -0.869873 c 0,-0.719385 0.585424,-1.304809 1.304809,-1.304809 h 0.869873 c 0.719384,0 1.304809,0.585424 1.304809,1.304809 v 0.869873 c 0,0.719385 -0.585425,1.304809 -1.304809,1.304809 z"
     opacity="0.05"
     id="path9-5"
     style="display:inline;stroke-width:0.869873" />
  <path
     d="m 12.442916,36.022351 c -0.4793,0 -0.869873,-0.390573 -0.869873,-0.869873 v -0.869873 c 0,-0.4793 0.390573,-0.869873 0.869873,-0.869873 h 0.869873 c 0.4793,0 0.869873,0.390573 0.869873,0.869873 v 0.869873 c 0,0.4793 -0.390573,0.869873 -0.869873,0.869873 z"
     opacity="0.07"
     id="path10-9"
     style="stroke-width:0.869873" />
  <path
     fill="#ffffff"
     d="m 13.312789,35.587414 h -0.869873 c -0.240085,0 -0.434936,-0.194851 -0.434936,-0.434936 v -0.869873 c 0,-0.240085 0.194851,-0.434936 0.434936,-0.434936 h 0.869873 c 0.240085,0 0.434936,0.194851 0.434936,0.434936 v 0.869873 c 0,0.240085 -0.194851,0.434936 -0.434936,0.434936 z"
     id="path11-2"
     style="stroke-width:0.869873" />
  <path
     d="m 16.812935,36.440821 c -0.719385,0 -1.304809,-0.585424 -1.304809,-1.304809 v -0.869873 c 0,-0.719385 0.585424,-1.304809 1.304809,-1.304809 h 0.869873 c 0.719384,0 1.304809,0.585424 1.304809,1.304809 v 0.869873 c 0,0.719385 -0.585425,1.304809 -1.304809,1.304809 z"
     opacity="0.05"
     id="path9-8"
     style="display:inline;stroke-width:0.869873" />
  <path
     d="m 16.812935,36.005885 c -0.4793,0 -0.869873,-0.390573 -0.869873,-0.869873 v -0.869873 c 0,-0.4793 0.390573,-0.869873 0.869873,-0.869873 h 0.869873 c 0.4793,0 0.869872,0.390573 0.869872,0.869873 v 0.869873 c 0,0.4793 -0.390572,0.869873 -0.869872,0.869873 z"
     opacity="0.07"
     id="path10-97"
     style="stroke-width:0.869873" />
  <path
     fill="#ffffff"
     d="m 17.682808,35.570948 h -0.869873 c -0.240085,0 -0.434936,-0.194851 -0.434936,-0.434936 v -0.869873 c 0,-0.240085 0.194851,-0.434936 0.434936,-0.434936 h 0.869873 c 0.240085,0 0.434936,0.194851 0.434936,0.434936 v 0.869873 c 0,0.240085 -0.194851,0.434936 -0.434936,0.434936 z"
     id="path11-3"
     style="stroke-width:0.869873" />
  <path
     d="m 21.172333,36.463025 c -0.719385,0 -1.304809,-0.585424 -1.304809,-1.304809 v -0.869873 c 0,-0.719385 0.585424,-1.304809 1.304809,-1.304809 h 0.869872 c 0.719385,0 1.30481,0.585424 1.30481,1.304809 v 0.869873 c 0,0.719385 -0.585425,1.304809 -1.30481,1.304809 z"
     opacity="0.05"
     id="path9-1"
     style="display:inline;stroke-width:0.869873" />
  <path
     d="m 21.172333,36.028089 c -0.4793,0 -0.869873,-0.390573 -0.869873,-0.869873 v -0.869873 c 0,-0.4793 0.390573,-0.869873 0.869873,-0.869873 h 0.869872 c 0.4793,0 0.869873,0.390573 0.869873,0.869873 v 0.869873 c 0,0.4793 -0.390573,0.869873 -0.869873,0.869873 z"
     opacity="0.07"
     id="path10-2"
     style="stroke-width:0.869873" />
  <path
     fill="#ffffff"
     d="m 22.042205,35.593152 h -0.869872 c -0.240085,0 -0.434937,-0.194851 -0.434937,-0.434936 v -0.869873 c 0,-0.240085 0.194852,-0.434936 0.434937,-0.434936 h 0.869872 c 0.240085,0 0.434937,0.194851 0.434937,0.434936 v 0.869873 c 0,0.240085 -0.194852,0.434936 -0.434937,0.434936 z"
     id="path11-9"
     style="stroke-width:0.869873" />
  <path
     d="m 9.9144272,13.828854 c -0.7193847,0 -1.3048091,-0.585424 -1.3048091,-1.304809 V 9.9144272 c 0,-0.7193847 0.5854244,-1.3048091 1.3048091,-1.3048091 h 2.6096178 c 0.719385,0 1.304809,0.5854244 1.304809,1.3048091 v 2.6096178 c 0,0.719385 -0.585424,1.304809 -1.304809,1.304809 z"
     opacity="0.05"
     id="path12"
     style="stroke-width:0.869873" />
  <path
     d="m 9.9144272,13.393918 c -0.4792999,0 -0.8698727,-0.390573 -0.8698727,-0.869873 V 9.9144272 c 0,-0.4792999 0.3905728,-0.8698727 0.8698727,-0.8698727 h 2.6096178 c 0.4793,0 0.869873,0.3905728 0.869873,0.8698727 v 2.6096178 c 0,0.4793 -0.390573,0.869873 -0.869873,0.869873 z"
     opacity="0.07"
     id="path13"
     style="stroke-width:0.869873" />
  <path
     fill="#ffffff"
     d="M 12.524045,12.958982 H 9.9144272 c -0.2400849,0 -0.4349364,-0.194852 -0.4349364,-0.434937 V 9.9144272 c 0,-0.2400849 0.1948515,-0.4349364 0.4349364,-0.4349364 h 2.6096178 c 0.240085,0 0.434937,0.1948515 0.434937,0.4349364 v 2.6096178 c 0,0.240085 -0.194852,0.434937 -0.434937,0.434937 z"
     id="path14"
     style="stroke-width:0.869873" />
  <path
     d="m 9.925223,21.049076 c -0.719385,0 -1.304809,-0.585424 -1.304809,-1.304809 v -2.609618 c 0,-0.719385 0.585424,-1.304809 1.304809,-1.304809 h 2.609618 c 0.719385,0 1.304809,0.585424 1.304809,1.304809 v 2.609618 c 0,0.719385 -0.585424,1.304809 -1.304809,1.304809 z"
     opacity="0.05"
     id="path12-7"
     style="stroke-width:0.869873" />
  <path
     d="m 9.925223,20.61414 c -0.4793,0 -0.869873,-0.390573 -0.869873,-0.869873 v -2.609618 c 0,-0.4793 0.390573,-0.869873 0.869873,-0.869873 h 2.609618 c 0.4793,0 0.869873,0.390573 0.869873,0.869873 v 2.609618 c 0,0.4793 -0.390573,0.869873 -0.869873,0.869873 z"
     opacity="0.07"
     id="path13-0"
     style="stroke-width:0.869873" />
  <path
     fill="#ffffff"
     d="M 12.534841,20.179204 H 9.925223 c -0.240085,0 -0.434936,-0.194852 -0.434936,-0.434937 v -2.609618 c 0,-0.240085 0.194851,-0.434936 0.434936,-0.434936 h 2.609618 c 0.240085,0 0.434937,0.194851 0.434937,0.434936 v 2.609618 c 0,0.240085 -0.194852,0.434937 -0.434937,0.434937 z"
     id="path14-9"
     style="stroke-width:0.869873" />
  <g
     id="g17">
    <path
       d="m 9.9239547,28.13042 c -0.719385,0 -1.304809,-0.585424 -1.304809,-1.304809 v -2.609618 c 0,-0.719384 0.585424,-1.304809 1.304809,-1.304809 h 2.6096183 c 0.719385,0 1.304809,0.585425 1.304809,1.304809 v 2.609618 c 0,0.719385 -0.585424,1.304809 -1.304809,1.304809 z"
       opacity="0.05"
       id="path12-6"
       style="stroke-width:0.869873" />
    <path
       d="m 9.9239547,27.695484 c -0.4793,0 -0.869873,-0.390573 -0.869873,-0.869873 v -2.609618 c 0,-0.4793 0.390573,-0.869873 0.869873,-0.869873 h 2.6096183 c 0.4793,0 0.869873,0.390573 0.869873,0.869873 v 2.609618 c 0,0.4793 -0.390573,0.869873 -0.869873,0.869873 z"
       opacity="0.07"
       id="path13-06"
       style="stroke-width:0.869873" />
    <path
       fill="#ffffff"
       d="M 12.533573,27.260548 H 9.9239547 c -0.240085,0 -0.434936,-0.194852 -0.434936,-0.434937 v -2.609618 c 0,-0.240085 0.194851,-0.434936 0.434936,-0.434936 h 2.6096183 c 0.240085,0 0.434937,0.194851 0.434937,0.434936 v 2.609618 c 0,0.240085 -0.194852,0.434937 -0.434937,0.434937 z"
       id="path14-2"
       style="stroke-width:0.869873" />
  </g>
  <g
     id="g18"
     transform="translate(1.8119612,-8.374796)">
    <path
       d="M 15.304809,22.219236 C 14.585424,22.219236 14,21.633812 14,20.914427 V 18.304809 C 14,17.585424 14.585424,17 15.304809,17 h 2.609618 c 0.719385,0 1.304809,0.585424 1.304809,1.304809 v 2.609618 c 0,0.719385 -0.585424,1.304809 -1.304809,1.304809 z"
       opacity="0.05"
       id="path12-1"
       style="stroke-width:0.869873" />
    <path
       d="m 15.304809,21.7843 c -0.4793,0 -0.869873,-0.390573 -0.869873,-0.869873 v -2.609618 c 0,-0.4793 0.390573,-0.869873 0.869873,-0.869873 h 2.609618 c 0.4793,0 0.869873,0.390573 0.869873,0.869873 v 2.609618 c 0,0.4793 -0.390573,0.869873 -0.869873,0.869873 z"
       opacity="0.07"
       id="path13-8"
       style="stroke-width:0.869873" />
    <path
       fill="#ffffff"
       d="m 17.914427,21.349364 h -2.609618 c -0.240085,0 -0.434936,-0.194852 -0.434936,-0.434937 v -2.609618 c 0,-0.240085 0.194851,-0.434936 0.434936,-0.434936 h 2.609618 c 0.240085,0 0.434937,0.194851 0.434937,0.434936 v 2.609618 c 0,0.240085 -0.194852,0.434937 -0.434937,0.434937 z"
       id="path14-7"
       style="stroke-width:0.869873" />
  </g>
  <path
     d="m 17.084265,21.042459 c -0.719384,0 -1.304809,-0.585424 -1.304809,-1.304809 v -2.609618 c 0,-0.719385 0.585425,-1.304809 1.304809,-1.304809 h 2.609618 c 0.719385,0 1.304809,0.585424 1.304809,1.304809 v 2.609618 c 0,0.719385 -0.585424,1.304809 -1.304809,1.304809 z"
     opacity="0.05"
     id="path12-2"
     style="stroke-width:0.869873" />
  <path
     d="m 17.084265,20.607523 c -0.4793,0 -0.869873,-0.390573 -0.869873,-0.869873 v -2.609618 c 0,-0.4793 0.390573,-0.869873 0.869873,-0.869873 h 2.609618 c 0.4793,0 0.869873,0.390573 0.869873,0.869873 v 2.609618 c 0,0.4793 -0.390573,0.869873 -0.869873,0.869873 z"
     opacity="0.07"
     id="path13-02"
     style="stroke-width:0.869873" />
  <path
     fill="#ffffff"
     d="m 19.693883,20.172587 h -2.609618 c -0.240085,0 -0.434936,-0.194852 -0.434936,-0.434937 v -2.609618 c 0,-0.240085 0.194851,-0.434936 0.434936,-0.434936 h 2.609618 c 0.240085,0 0.434937,0.194851 0.434937,0.434936 v 2.609618 c 0,0.240085 -0.194852,0.434937 -0.434937,0.434937 z"
     id="path14-3"
     style="stroke-width:0.869873" />
  <g
     fill="none"
     fill-rule="nonzero"
     stroke="none"
     stroke-width="1"
     stroke-linecap="butt"
     stroke-linejoin="miter"
     stroke-miterlimit="10"
     stroke-dasharray="none"
     stroke-dashoffset="0"
     font-family="none"
     font-weight="none"
     font-size="none"
     text-anchor="none"
     style="display:inline;mix-blend-mode:normal"
     id="g9"
     transform="matrix(0.09476897,0,0,0.09902703,23.025816,23.874812)">
    <g
       transform="scale(5.33333)"
       id="g8">
      <path
         d="m 1,12 h 46 v 25 c 0,0.552 -0.448,1 -1,1 H 2 C 1.448,38 1,37.552 1,37 Z"
         fill="#b41530"
         id="path2-3" />
      <path
         d="m 44,10 c -0.552,0 -1,0.448 -1,1 v 1 H 5 V 11 C 5,10.448 4.552,10 4,10 H 2 c -0.552,0 -1,0.448 -1,1 v 26 c 0,0.552 0.448,1 1,1 h 44 c 0.552,0 1,-0.448 1,-1 V 12 11 c 0,-0.552 -0.448,-1 -1,-1 z m -31,4 h 2 V 36 H 13 Z M 11,36 H 9 V 14 h 2 z m 6,-22 h 2 v 22 h -2 z m 4,0 h 2 v 22 h -2 z m 4,0 h 2 v 22 h -2 z m 4,0 h 2 v 22 h -2 z m 4,0 h 2 v 22 h -2 z m 4,0 h 2 V 36 H 37 Z M 5,14 H 7 V 36 H 5 Z M 43,36 H 41 V 14 h 2 z"
         fill="url(#color-1)"
         id="path3-5"
         style="fill:url(#color-1)" />
      <path
         d="m 13.5,36 h 4 c 0.276,0 0.5,0.224 0.5,0.5 v 1 c 0,0.276 -0.224,0.5 -0.5,0.5 h -4 C 13.224,38 13,37.776 13,37.5 v -1 C 13,36.224 13.224,36 13.5,36 Z"
         fill="#a3102a"
         id="path4-6" />
      <path
         d="m 30.5,36 h 4 c 0.276,0 0.5,0.224 0.5,0.5 v 1 c 0,0.276 -0.224,0.5 -0.5,0.5 h -4 C 30.224,38 30,37.776 30,37.5 v -1 C 30,36.224 30.224,36 30.5,36 Z"
         fill="#a3102a"
         id="path5" />
      <circle
         cx="45"
         cy="12"
         r="1"
         fill="#a3102a"
         id="circle5-2" />
      <circle
         cx="45"
         cy="36"
         r="1"
         fill="#a3102a"
         id="circle6-9" />
      <circle
         cx="3"
         cy="12"
         r="1"
         fill="#a3102a"
         id="circle7-1" />
      <circle
         cx="3"
         cy="36"
         r="1"
         fill="#a3102a"
         id="circle8" />
    </g>
  </g>
</svg>
