<?xml version="1.0" encoding="UTF-8" standalone="no"?>
<svg
   viewBox="0 0 48 48"
   width="240px"
   height="240px"
   version="1.1"
   id="svg320"
   sodipodi:docname="icons8-software-container.svg"
   inkscape:version="1.4.2 (ebf0e940d0, 2025-05-08)"
   xmlns:inkscape="http://www.inkscape.org/namespaces/inkscape"
   xmlns:sodipodi="http://sodipodi.sourceforge.net/DTD/sodipodi-0.dtd"
   xmlns="http://www.w3.org/2000/svg"
   xmlns:svg="http://www.w3.org/2000/svg">
  <defs
     id="defs324">
    <linearGradient
       id="M0KIpv9F9DO9XPHmZgcmng"
       x1="12.496"
       x2="15.03"
       y1="26.719999"
       y2="21.954"
       gradientTransform="matrix(0.42119248,0,0,-0.42119248,25.421635,46.097652)"
       gradientUnits="userSpaceOnUse">
      <stop
         offset="0"
         stop-color="#737b80"
         id="stop449" />
      <stop
         offset=".473"
         stop-color="#686f74"
         id="stop451" />
      <stop
         offset="1"
         stop-color="#575c61"
         id="stop453" />
    </linearGradient>
    <linearGradient
       id="M0KIpv9F9DO9XPHmZgcmnf"
       x1="32.495998"
       x2="35.028999"
       y1="26.719999"
       y2="21.954"
       gradientTransform="matrix(0.42119248,0,0,-0.42119248,25.421635,46.097652)"
       gradientUnits="userSpaceOnUse">
      <stop
         offset="0"
         stop-color="#737b80"
         id="stop440" />
      <stop
         offset=".473"
         stop-color="#686f74"
         id="stop442" />
      <stop
         offset="1"
         stop-color="#575c61"
         id="stop444" />
    </linearGradient>
    <linearGradient
       id="M0KIpv9F9DO9XPHmZgcmne"
       x1="22.496"
       x2="25.028999"
       y1="26.719999"
       y2="21.954"
       gradientTransform="matrix(0.42119248,0,0,-0.42119248,25.421635,46.097652)"
       gradientUnits="userSpaceOnUse">
      <stop
         offset="0"
         stop-color="#737b80"
         id="stop431" />
      <stop
         offset=".473"
         stop-color="#686f74"
         id="stop433" />
      <stop
         offset="1"
         stop-color="#575c61"
         id="stop435" />
    </linearGradient>
    <radialGradient
       id="M0KIpv9F9DO9XPHmZgcmnd"
       cx="14"
       cy="23.889999"
       r="4"
       gradientTransform="matrix(0.42119248,0,0,-0.42119248,25.421635,46.097652)"
       gradientUnits="userSpaceOnUse">
      <stop
         offset=".696"
         stop-opacity=".2"
         id="stop424" />
      <stop
         offset=".959"
         stop-opacity="0"
         id="stop426" />
    </radialGradient>
    <radialGradient
       id="M0KIpv9F9DO9XPHmZgcmnc"
       cx="24"
       cy="23.889999"
       r="4"
       gradientTransform="matrix(0.42119248,0,0,-0.42119248,25.421635,46.097652)"
       gradientUnits="userSpaceOnUse">
      <stop
         offset=".696"
         stop-opacity=".2"
         id="stop417" />
      <stop
         offset=".959"
         stop-opacity="0"
         id="stop419" />
    </radialGradient>
    <radialGradient
       id="M0KIpv9F9DO9XPHmZgcmnb"
       cx="34"
       cy="23.889999"
       r="4"
       gradientTransform="matrix(0.42119248,0,0,-0.42119248,25.421635,46.097652)"
       gradientUnits="userSpaceOnUse">
      <stop
         offset=".696"
         stop-opacity=".2"
         id="stop410" />
      <stop
         offset=".959"
         stop-opacity="0"
         id="stop412" />
    </radialGradient>
    <linearGradient
       id="M0KIpv9F9DO9XPHmZgcmna"
       x1="10.302"
       x2="32.533001"
       y1="49.653"
       y2="7.8410001"
       gradientTransform="matrix(0.42119248,0,0,-0.42119248,25.421635,46.097652)"
       gradientUnits="userSpaceOnUse">
      <stop
         offset="0"
         stop-color="#fcfcfc"
         id="stop403" />
      <stop
         offset=".95"
         stop-color="#c3c9cd"
         id="stop405" />
    </linearGradient>
    <linearGradient
       x1="24"
       y1="4.4889998"
       x2="24"
       y2="45.143002"
       gradientUnits="userSpaceOnUse"
       id="color-1">
      <stop
         offset="0"
         stop-color="#f44f5a"
         id="stop1-7" />
      <stop
         offset="1"
         stop-color="#e52030"
         id="stop2-5" />
    </linearGradient>
  </defs>
  <sodipodi:namedview
     id="namedview322"
     pagecolor="#ffffff"
     bordercolor="#666666"
     borderopacity="1.0"
     inkscape:pageshadow="2"
     inkscape:pageopacity="0.0"
     inkscape:pagecheckerboard="0"
     showgrid="false"
     inkscape:zoom="1.4208334"
     inkscape:cx="-122.81525"
     inkscape:cy="44.340175"
     inkscape:window-width="2560"
     inkscape:window-height="1360"
     inkscape:window-x="0"
     inkscape:window-y="0"
     inkscape:window-maximized="1"
     inkscape:current-layer="svg320"
     inkscape:showpageshadow="2"
     inkscape:deskcolor="#d1d1d1" />
  <linearGradient
     id="SVGID_1_"
     x1="23.855"
     x2="23.983"
     y1="4.908"
     y2="17.227"
     gradientUnits="userSpaceOnUse"
     gradientTransform="matrix(0.83754239,0,0,0.83754239,1.9089261,1.7931334)">
    <stop
       offset="0"
       stop-color="#7dd8f3"
       id="stop291" />
    <stop
       offset="1"
       stop-color="#45b0d0"
       id="stop293" />
  </linearGradient>
  <circle
     cx="22.009941"
     cy="17.622683"
     r="12.563135"
     fill="url(#SVGID_1_)"
     id="circle296"
     style="fill:url(#SVGID_1_);stroke-width:0.837541" />
  <linearGradient
     id="SVGID_2_"
     x1="18.175"
     x2="29.825"
     y1="19.021"
     y2="19.021"
     gradientUnits="userSpaceOnUse"
     gradientTransform="matrix(0.83754239,0,0,0.83754239,1.9089261,1.7931334)">
    <stop
       offset="0"
       stop-color="#3079d6"
       id="stop298" />
    <stop
       offset="1"
       stop-color="#297cd2"
       id="stop300" />
  </linearGradient>
  <circle
     cx="22.009941"
     cy="17.706436"
     r="4.8577456"
     fill="url(#SVGID_2_)"
     id="circle303"
     style="fill:url(#SVGID_2_);stroke-width:0.837541" />
  <circle
     cx="22.009941"
     cy="17.706436"
     r="1.9263473"
     fill="#ffffff"
     id="circle305"
     style="stroke-width:0.837541" />
  <path
     d="m 9.4468073,17.622683 c 0,6.951602 5.6115347,12.563137 12.5631357,12.563137 6.951601,0 12.563135,-5.611535 12.563135,-12.563137 0,-0.251262 0,-0.502525 0,-0.753787 H 9.4468073 c 0,0.251262 0,0.502525 0,0.753787 z"
     opacity="0.05"
     id="path307"
     style="stroke-width:0.837541" />
  <path
     d="m 9.4468073,17.622683 c 0,6.951602 5.6115347,12.563137 12.5631357,12.563137 6.951601,0 12.563135,-5.611535 12.563135,-12.563137 0,-0.08376 0,-0.167507 0,-0.335016 H 9.4468073 c 0,0.08376 0,0.167509 0,0.335016 z"
     opacity="0.07"
     id="path309"
     style="stroke-width:0.837541" />
  <linearGradient
     id="SVGID_3_"
     x1="16.786"
     x2="30.174"
     y1="-440.286"
     y2="-472.232"
     gradientTransform="matrix(0.83754239,0,0,-0.83754239,1.9089261,-354.99993)"
     gradientUnits="userSpaceOnUse">
    <stop
       offset="0"
       stop-color="#eba84b"
       id="stop311" />
    <stop
       offset="1"
       stop-color="#d97218"
       id="stop313" />
  </linearGradient>
  <path
     fill="url(#SVGID_3_)"
     d="M 36.248163,38.644997 H 7.7717222 c -0.5025255,0 -0.8375424,-0.418771 -0.8375424,-0.837543 V 18.543981 c 0,-0.502525 0.3350169,-0.837544 0.8375424,-0.837544 H 36.248163 c 0.502526,0 0.837542,0.335019 0.837542,0.837544 v 19.263473 c 0,0.418772 -0.418771,0.837543 -0.837542,0.837543 z"
     id="path316"
     style="fill:url(#SVGID_3_);stroke-width:0.837541" />
  <path
     fill="#633412"
     d="m 18.659773,21.056608 h 6.700339 c 0.502526,0 0.837542,0.335017 0.837542,0.837542 v 0 c 0,0.502525 -0.335016,0.837542 -0.837542,0.837542 h -6.700339 c -0.502525,0 -0.837541,-0.335017 -0.837541,-0.837542 v 0 c 0,-0.502525 0.335016,-0.837542 0.837541,-0.837542 z"
     id="path318"
     style="stroke-width:0.837541" />
  <g
     fill="none"
     fill-rule="nonzero"
     stroke="none"
     stroke-width="1"
     stroke-linecap="butt"
     stroke-linejoin="miter"
     stroke-miterlimit="10"
     stroke-dasharray="none"
     stroke-dashoffset="0"
     font-family="none"
     font-weight="none"
     font-size="none"
     text-anchor="none"
     style="display:inline;mix-blend-mode:normal"
     id="g9"
     transform="matrix(0.10423883,0,0,0.10892242,19.968987,23.126292)">
    <g
       transform="scale(5.33333)"
       id="g8">
      <path
         d="m 1,12 h 46 v 25 c 0,0.552 -0.448,1 -1,1 H 2 C 1.448,38 1,37.552 1,37 Z"
         fill="#b41530"
         id="path2-3" />
      <path
         d="m 44,10 c -0.552,0 -1,0.448 -1,1 v 1 H 5 V 11 C 5,10.448 4.552,10 4,10 H 2 c -0.552,0 -1,0.448 -1,1 v 26 c 0,0.552 0.448,1 1,1 h 44 c 0.552,0 1,-0.448 1,-1 V 12 11 c 0,-0.552 -0.448,-1 -1,-1 z m -31,4 h 2 V 36 H 13 Z M 11,36 H 9 V 14 h 2 z m 6,-22 h 2 v 22 h -2 z m 4,0 h 2 v 22 h -2 z m 4,0 h 2 v 22 h -2 z m 4,0 h 2 v 22 h -2 z m 4,0 h 2 v 22 h -2 z m 4,0 h 2 V 36 H 37 Z M 5,14 H 7 V 36 H 5 Z M 43,36 H 41 V 14 h 2 z"
         fill="url(#color-1)"
         id="path3-5"
         style="fill:url(#color-1)" />
      <path
         d="m 13.5,36 h 4 c 0.276,0 0.5,0.224 0.5,0.5 v 1 c 0,0.276 -0.224,0.5 -0.5,0.5 h -4 C 13.224,38 13,37.776 13,37.5 v -1 C 13,36.224 13.224,36 13.5,36 Z"
         fill="#a3102a"
         id="path4-6" />
      <path
         d="m 30.5,36 h 4 c 0.276,0 0.5,0.224 0.5,0.5 v 1 c 0,0.276 -0.224,0.5 -0.5,0.5 h -4 C 30.224,38 30,37.776 30,37.5 v -1 C 30,36.224 30.224,36 30.5,36 Z"
         fill="#a3102a"
         id="path5" />
      <circle
         cx="45"
         cy="12"
         r="1"
         fill="#a3102a"
         id="circle5-2" />
      <circle
         cx="45"
         cy="36"
         r="1"
         fill="#a3102a"
         id="circle6-9" />
      <circle
         cx="3"
         cy="12"
         r="1"
         fill="#a3102a"
         id="circle7-1" />
      <circle
         cx="3"
         cy="36"
         r="1"
         fill="#a3102a"
         id="circle8" />
    </g>
  </g>
</svg>
